<svg xmlns="http://www.w3.org/2000/svg" xmlns:xlink="http://www.w3.org/1999/xlink" viewBox="0 0 505.98 533.07"><defs><style>.cls-1{fill:none;}.cls-2{clip-path:url(#clip-path);}.cls-3{fill:#8fd3d1;}.cls-4{fill:#0098d5;}.cls-5{fill:#0d2e52;}.cls-6{fill:#a11c43;}.cls-7{fill:#eb184d;}.cls-8{fill:#fff;}</style><clipPath id="clip-path"><path class="cls-1" d="M46.28,315.24l-.42-95.56q-.47-109.35,55-161.81T252.82,5q95.57-.42,151,51.56T459.65,217.9l.41,95.56q.48,110.34-54.47,162.8T255.08,529.12q-96.55.42-152.44-51.56T46.28,315.24Z"/></clipPath></defs><title>Angled Tree Logo</title><g id="Layer_2" data-name="Layer 2"><g id="Layer_1-2" data-name="Layer 1"><g id="Angeld_Tree_Logo" data-name="Angeld Tree Logo"><g class="cls-2"><rect class="cls-3" width="505.92" height="106.61"/><rect class="cls-4" y="106.61" width="505.92" height="106.61"/><rect class="cls-5" y="213.23" width="505.92" height="106.61"/><rect class="cls-6" x="0.06" y="319.84" width="505.92" height="106.61"/><rect class="cls-7" x="0.02" y="426.46" width="505.92" height="106.61"/></g><polygon class="cls-8" points="379.29 400.82 320.49 303.28 363.08 312.84 297.48 206.33 324.49 215.59 255.97 107.55 188.66 211.74 213.36 207.1 150.07 310.52 191.2 304.61 130.01 400.82 236.38 376.05 236.38 427.57 272.91 427.57 272.91 375.52 379.29 400.82"/></g></g></g></svg>